<svg width="76" height="76" viewBox="0 0 76 76" fill="none" xmlns="http://www.w3.org/2000/svg">
<rect width="76" height="76" fill="url(#paint0_linear_30_38)"/>
<path d="M57.1318 36.2069C57.9191 35.4396 58.197 34.3134 57.8574 33.2666C57.517 32.2197 56.6304 31.4724 55.541 31.3138L45.8558 29.9065C45.4433 29.8465 45.0869 29.5878 44.9027 29.2137L40.5727 20.4376C40.0865 19.4516 39.0997 18.8389 38 18.8389C36.9011 18.8389 35.9143 19.4516 35.4281 20.4376L31.0973 29.2137C30.9131 29.5878 30.5559 29.8465 30.1434 29.9065L20.4582 31.3146C19.3696 31.4724 18.483 32.2197 18.1426 33.2666C17.803 34.3134 18.0809 35.4396 18.8682 36.2069L25.8759 43.0375C26.1746 43.3291 26.3116 43.7488 26.2411 44.1589L24.5871 53.8048C24.4013 54.8885 24.8378 55.9626 25.7277 56.6098C26.6167 57.2578 27.7741 57.3419 28.7489 56.8285L37.4105 52.2742C37.7797 52.0804 38.2203 52.0804 38.5895 52.2742L47.2519 56.8285C47.6748 57.0511 48.133 57.1609 48.5887 57.1609C49.1806 57.1609 49.7701 56.9758 50.2731 56.6098C51.163 55.9626 51.5995 54.8885 51.4137 53.8048L49.7589 44.1597C49.6884 43.7488 49.8254 43.3299 50.1241 43.0383L57.1318 36.2069ZM48.181 44.4304L49.835 54.0756C49.9183 54.5609 49.7301 55.0247 49.3312 55.3146C48.9315 55.6038 48.4341 55.639 47.9976 55.4116L39.3352 50.8565C38.9179 50.6378 38.4582 50.5273 38 50.5273C37.5419 50.5273 37.0829 50.6378 36.6648 50.8573L28.004 55.4116C27.5659 55.639 27.0685 55.6038 26.6696 55.3146C26.2707 55.0247 26.0833 54.5617 26.1658 54.0756L27.8198 44.4304C27.9792 43.4997 27.6708 42.5497 26.9948 41.8913L19.9864 35.0599C19.6332 34.7155 19.513 34.2301 19.666 33.7616C19.8182 33.2922 20.2002 32.9702 20.688 32.8989L30.3724 31.4917C31.3072 31.3563 32.1153 30.77 32.5326 29.9226L36.8634 21.1464C37.0813 20.7043 37.5066 20.4408 37.9992 20.4408C38.4926 20.4408 38.9171 20.7043 39.1358 21.1464L43.4666 29.9226C43.8839 30.77 44.6912 31.3563 45.626 31.4917L55.3112 32.8989C55.799 32.9702 56.181 33.2922 56.3332 33.7616C56.4854 34.2301 56.366 34.7155 56.0128 35.0599L49.0052 41.8905C48.3292 42.5497 48.0208 43.4989 48.181 44.4304Z" fill="white"/>
<path d="M21.0518 45.3154L17.0104 47.6487C16.4524 47.9709 15.7761 47.8443 15.5 47.366C15.2239 46.8877 15.4524 46.2388 16.0104 45.9167L20.0518 43.5833C20.6098 43.2612 21.286 43.3877 21.5622 43.866C21.8383 44.3443 21.6098 44.9932 21.0518 45.3154Z" fill="white"/>
<path d="M50.2718 25.6987L53.3573 22.1976C53.7833 21.7142 53.7928 21.0263 53.3785 20.6612C52.9641 20.296 52.2829 20.3919 51.8569 20.8753L48.7714 24.3764C48.3454 24.8598 48.3359 25.5476 48.7502 25.9128C49.1646 26.278 49.8458 26.1821 50.2718 25.6987Z" fill="white"/>
<path d="M54.5436 46.9863L58.5851 49.3196C59.1431 49.6418 59.8193 49.5152 60.0954 49.0369C60.3716 48.5586 60.1431 47.9097 59.5851 47.5876L55.5436 45.2542C54.9856 44.9321 54.3094 45.0586 54.0333 45.5369C53.7571 46.0152 53.9856 46.6641 54.5436 46.9863Z" fill="white"/>
<path d="M25.8569 25.6987L22.7714 22.1976C22.3454 21.7142 22.3359 21.0263 22.7502 20.6612C23.1646 20.296 23.8458 20.3919 24.2718 20.8753L27.3573 24.3764C27.7833 24.8598 27.7928 25.5476 27.3785 25.9128C26.9641 26.278 26.2829 26.1821 25.8569 25.6987Z" fill="white"/>
<defs>
<linearGradient id="paint0_linear_30_38" x1="80.9692" y1="83.8923" x2="-45.142" y2="65.4407" gradientUnits="userSpaceOnUse">
<stop stop-color="#0B3F37"/>
<stop offset="0.969562" stop-color="#CB8D62"/>
</linearGradient>
</defs>
</svg>
